<svg width="273" height="142" viewBox="0 0 273 142" fill="none" xmlns="http://www.w3.org/2000/svg">
<path d="M24.6 83.8V60.6H54.4C60.6667 60.6 65.4667 59 68.8 55.8C72.2667 52.6 74 48.2667 74 42.8C74 37.7333 72.3333 33.5333 69 30.2C65.6667 26.8667 60.8667 25.2 54.6 25.2H24.6V0.799994H58.2C67.5333 0.799994 75.7333 2.59999 82.8 6.2C89.8667 9.66666 95.4 14.5333 99.4 20.8C103.4 27.0667 105.4 34.2667 105.4 42.4C105.4 50.6667 103.4 57.9333 99.4 64.2C95.4 70.3333 89.8 75.1333 82.6 78.6C75.4 82.0667 66.9333 83.8 57.2 83.8H24.6ZM0.600001 142V0.799994H32V142H0.600001ZM77.4 142L33.4 81.2L62.2 73.4L114.6 142H77.4ZM128.334 142V0.799994H150.734L206.334 87.4H194.934L250.334 0.799994H272.934V142H241.534V53.8L247.134 55.2L210.934 111.6H190.134L154.134 55.2L159.534 53.8V142H128.334Z" fill="#893530"/>
</svg>
